<svg width="209" height="30" viewBox="0 0 209 30" fill="none" xmlns="http://www.w3.org/2000/svg">
<path d="M0.332497 14.92C0.332497 12.1467 0.932497 9.68 2.1325 7.52C3.3325 5.33333 4.99916 3.64 7.1325 2.44C9.2925 1.21333 11.7325 0.599998 14.4525 0.599998C17.7858 0.599998 20.6392 1.48 23.0125 3.24C25.3858 5 26.9725 7.4 27.7725 10.44H20.2525C19.6925 9.26667 18.8925 8.37333 17.8525 7.76C16.8392 7.14667 15.6792 6.84 14.3725 6.84C12.2658 6.84 10.5592 7.57333 9.2525 9.04C7.94583 10.5067 7.2925 12.4667 7.2925 14.92C7.2925 17.3733 7.94583 19.3333 9.2525 20.8C10.5592 22.2667 12.2658 23 14.3725 23C15.6792 23 16.8392 22.6933 17.8525 22.08C18.8925 21.4667 19.6925 20.5733 20.2525 19.4H27.7725C26.9725 22.44 25.3858 24.84 23.0125 26.6C20.6392 28.3333 17.7858 29.2 14.4525 29.2C11.7325 29.2 9.2925 28.6 7.1325 27.4C4.99916 26.1733 3.3325 24.48 2.1325 22.32C0.932497 20.16 0.332497 17.6933 0.332497 14.92ZM46.0412 29.28C43.4012 29.28 40.9746 28.6667 38.7612 27.44C36.5746 26.2133 34.8279 24.5067 33.5212 22.32C32.2412 20.1067 31.6012 17.6267 31.6012 14.88C31.6012 12.1333 32.2412 9.66667 33.5212 7.48C34.8279 5.29333 36.5746 3.58667 38.7612 2.36C40.9746 1.13333 43.4012 0.52 46.0412 0.52C48.6812 0.52 51.0946 1.13333 53.2812 2.36C55.4946 3.58667 57.2279 5.29333 58.4812 7.48C59.7612 9.66667 60.4012 12.1333 60.4012 14.88C60.4012 17.6267 59.7612 20.1067 58.4812 22.32C57.2012 24.5067 55.4679 26.2133 53.2812 27.44C51.0946 28.6667 48.6812 29.28 46.0412 29.28ZM46.0412 23.04C48.2812 23.04 50.0679 22.2933 51.4012 20.8C52.7612 19.3067 53.4412 17.3333 53.4412 14.88C53.4412 12.4 52.7612 10.4267 51.4012 8.96C50.0679 7.46666 48.2812 6.72 46.0412 6.72C43.7746 6.72 41.9612 7.45333 40.6012 8.92C39.2679 10.3867 38.6012 12.3733 38.6012 14.88C38.6012 17.36 39.2679 19.3467 40.6012 20.84C41.9612 22.3067 43.7746 23.04 46.0412 23.04ZM71.8466 0.919999V29H65.0066V0.919999H71.8466ZM102.723 29H95.8834L84.4434 11.68V29H77.6034V0.919999H84.4434L95.8834 18.32V0.919999H102.723V29Z" fill="url(#paint0_linear_5_39)"/>
<path d="M134.842 0.919999L124.882 29H116.322L106.362 0.919999H113.642L120.602 22.12L127.602 0.919999H134.842ZM145.34 6.4V12.08H154.5V17.36H145.34V23.52H155.7V29H138.5V0.919999H155.7V6.4H145.34ZM175.261 29L169.421 18.4H167.781V29H160.941V0.919999H172.421C174.634 0.919999 176.514 1.30667 178.061 2.08C179.634 2.85333 180.808 3.92 181.581 5.28C182.354 6.61333 182.741 8.10667 182.741 9.76C182.741 11.6267 182.208 13.2933 181.141 14.76C180.101 16.2267 178.554 17.2667 176.501 17.88L182.981 29H175.261ZM167.781 13.56H172.021C173.274 13.56 174.208 13.2533 174.821 12.64C175.461 12.0267 175.781 11.16 175.781 10.04C175.781 8.97333 175.461 8.13333 174.821 7.52C174.208 6.90667 173.274 6.6 172.021 6.6H167.781V13.56ZM208.035 0.919999V6.4H200.595V29H193.755V6.4H186.315V0.919999H208.035Z" fill="#F7F7F7"/>
<defs>
<linearGradient id="paint0_linear_5_39" x1="104" y1="-9" x2="104" y2="39" gradientUnits="userSpaceOnUse">
<stop stop-color="#FFE386"/>
<stop offset="1" stop-color="#DEAC41"/>
</linearGradient>
</defs>
</svg>
