<svg width="40" height="40" viewBox="0 0 40 40" fill="none" xmlns="http://www.w3.org/2000/svg">
<path d="M18.3333 25H21.6667C22.5507 25 23.3986 24.6489 24.0237 24.0237C24.6488 23.3986 25 22.5508 25 21.6667C25 20.7827 24.6488 19.9348 24.0237 19.3097C23.3986 18.6846 22.5507 18.3334 21.6667 18.3334H16.6667C15.6667 18.3334 14.8333 18.6667 14.3333 19.3334L5 28.3334" stroke="#DEDEDE" stroke-width="2" stroke-linecap="round" stroke-linejoin="round"/>
<path d="M11.6666 35L14.3333 32.6666C14.8333 32 15.6666 31.6666 16.6666 31.6666H23.3333C25.1666 31.6666 26.8333 31 28 29.6666L35.6666 22.3333C36.3098 21.7255 36.6851 20.8871 36.7101 20.0026C36.7352 19.118 36.4077 18.2598 35.8 17.6166C35.1922 16.9735 34.3538 16.5981 33.4692 16.5731C32.5847 16.5481 31.7264 16.8755 31.0833 17.4833L24.0833 23.9833" stroke="#DEDEDE" stroke-width="2" stroke-linecap="round" stroke-linejoin="round"/>
<path d="M3.33337 26.6666L13.3334 36.6666" stroke="#DEDEDE" stroke-width="2" stroke-linecap="round" stroke-linejoin="round"/>
<path d="M26.6667 19.8333C29.3361 19.8333 31.5 17.6693 31.5 15C31.5 12.3306 29.3361 10.1666 26.6667 10.1666C23.9973 10.1666 21.8334 12.3306 21.8334 15C21.8334 17.6693 23.9973 19.8333 26.6667 19.8333Z" stroke="#DEDEDE" stroke-width="2" stroke-linecap="round" stroke-linejoin="round"/>
<path d="M10 13.3334C12.7614 13.3334 15 11.0948 15 8.33337C15 5.57195 12.7614 3.33337 10 3.33337C7.23858 3.33337 5 5.57195 5 8.33337C5 11.0948 7.23858 13.3334 10 13.3334Z" stroke="#DEDEDE" stroke-width="2" stroke-linecap="round" stroke-linejoin="round"/>
</svg>
