<svg width="40" height="40" viewBox="0 0 40 40" fill="none" xmlns="http://www.w3.org/2000/svg">
<path d="M13.3334 23.3334C18.8562 23.3334 23.3334 18.8562 23.3334 13.3334C23.3334 7.81053 18.8562 3.33337 13.3334 3.33337C7.81053 3.33337 3.33337 7.81053 3.33337 13.3334C3.33337 18.8562 7.81053 23.3334 13.3334 23.3334Z" stroke="#DEDEDE" stroke-width="2" stroke-linecap="round" stroke-linejoin="round"/>
<path d="M30.1499 17.2833C31.7255 17.8707 33.1274 18.8459 34.2262 20.1187C35.325 21.3914 36.0851 22.9207 36.4362 24.5651C36.7873 26.2095 36.7181 27.9159 36.235 29.5264C35.7519 31.137 34.8705 32.5997 33.6723 33.7793C32.4741 34.959 30.9978 35.8175 29.3799 36.2754C27.762 36.7333 26.0548 36.7758 24.4161 36.3991C22.7774 36.0223 21.2601 35.2385 20.0047 34.12C18.7492 33.0015 17.796 31.5845 17.2333 30" stroke="#DEDEDE" stroke-width="2" stroke-linecap="round" stroke-linejoin="round"/>
<path d="M11.6666 10H13.3333V16.6667" stroke="#DEDEDE" stroke-width="2" stroke-linecap="round" stroke-linejoin="round"/>
<path d="M27.85 23.1333L29.0166 24.3166L24.3167 29.0166" stroke="#DEDEDE" stroke-width="2" stroke-linecap="round" stroke-linejoin="round"/>
</svg>
